<svg width="73" height="46" viewBox="0 0 73 46" fill="none" xmlns="http://www.w3.org/2000/svg">
<path d="M42.1254 20.0194H44.3766C44.5292 18.3966 45.5264 17.0217 46.9479 16.312V13.9462C44.2724 14.7939 42.3055 17.1742 42.1254 20.0194Z" fill="white"/>
<path d="M28.4421 20.0194H30.6938C30.5183 17.2322 28.6238 14.8956 26.031 14.0027V16.3969C27.3671 17.129 28.2954 18.4579 28.4421 20.0194Z" fill="white"/>
<path d="M33.3509 20.0193H35.5781C35.5719 19.6532 35.5528 19.2909 35.5133 18.9349H35.5359C35.5359 17.2075 35.8808 15.5585 36.4898 14.0389C37.0981 15.5585 37.4438 17.2078 37.4438 18.9349H37.4664C37.4254 19.2909 37.4066 19.6536 37.4009 20.0193H39.6284C39.7188 15.6703 42.8022 12.0355 46.9479 10.984V8.73941C43.54 9.43265 40.664 11.5423 38.9822 14.4035C38.6767 13.4156 38.2735 12.4673 37.7849 11.5714C39.8338 8.50422 43.1176 6.30224 46.9479 5.63106V3.43245C42.6757 4.07521 38.9607 6.35309 36.4898 9.60016C34.0178 6.35272 30.3021 4.07521 26.0318 3.43245V5.63106C29.8613 6.30224 33.144 8.50422 35.1948 11.5722C34.7061 12.4692 34.301 13.4163 33.9956 14.4046C32.3157 11.5434 29.4401 9.43265 26.0322 8.73941V10.984C30.1771 12.0358 33.2597 15.6703 33.3509 20.0193Z" fill="white"/>
<path d="M22.1946 0V23.4968H50.7852V0H22.1946ZM48.852 21.6126H24.127V1.88453H48.852V21.6126Z" fill="white"/>
<path d="M10.4656 45.3014C9.25064 45.3014 8.24074 45.0647 7.39948 44.6078C6.3528 45.1014 5.24938 45.3747 4.25827 45.3747C1.88358 45.3747 0.5 44.1703 0.5 41.3435V35.196H4.05284V41.0706C4.05284 42.1822 4.59516 42.6758 5.71696 42.6758C6.16576 42.6758 6.53944 42.5845 6.91351 42.4193V35.196H10.4656V45.3014Z" fill="white"/>
<path d="M19.982 42.6204V45.1369C19.01 45.301 18.1124 45.3743 17.4203 45.3743C15.0647 45.3743 13.4941 43.9329 13.4941 41.763V37.6406H11.9979V35.1956H13.4941V33.2625L17.0462 32.2772V35.1956H19.8881V37.6406H17.0462V41.216C17.0462 42.0902 17.6633 42.675 18.5792 42.675C19.0288 42.675 19.496 42.6387 19.982 42.6204Z" fill="white"/>
<path d="M20.9911 40.1945C20.9911 37.0746 23.2719 35.0139 26.6937 35.0139C30.0775 35.0139 32.3587 37.0749 32.3587 40.1945C32.3587 43.2946 30.0775 45.3747 26.6937 45.3747C23.2719 45.3744 20.9911 43.2946 20.9911 40.1945ZM28.6939 40.1945C28.6939 38.6989 27.871 37.7128 26.6745 37.7128C25.4596 37.7128 24.6558 38.6989 24.6558 40.1945C24.6558 41.6719 25.4596 42.6754 26.6745 42.6754C27.871 42.6751 28.6939 41.6719 28.6939 40.1945Z" fill="white"/>
<path d="M49.5974 39.0447V45.1923H46.0446V39.2631C46.0446 38.2049 45.5402 37.7129 44.661 37.7129C44.3241 37.7129 43.9688 37.7865 43.5951 38.0056V45.1926H40.0427V39.2635C40.0427 38.2053 39.5563 37.7132 38.6779 37.7132C38.3035 37.7132 37.9853 37.8045 37.6492 38.0236V45.193H34.0964V35.0865C35.2182 35.0865 36.3212 35.343 37.1625 35.7797C38.0789 35.2877 39.014 35.0143 39.8177 35.0143C40.9771 35.0143 41.8935 35.2873 42.5289 35.8175C43.2767 35.2514 44.1551 35.0143 45.3148 35.0143C47.9141 35.0136 49.5974 36.2179 49.5974 39.0447Z" fill="white"/>
<path d="M61.431 41.4161H54.9435C55.1114 42.2727 55.6349 42.6751 57.355 42.6751C58.3461 42.6751 59.7485 42.456 60.8515 42.1639V44.7002C59.8048 45.101 58.0656 45.3744 56.5141 45.3744C53.3545 45.3744 51.2788 43.6955 51.2788 40.3213C51.2788 37.1475 53.3354 35.0136 56.4206 35.0136C59.5055 35.0136 61.5625 37.0196 61.5625 40.03C61.5621 40.5041 61.5057 41.0145 61.431 41.4161ZM54.9247 39.2276H57.9349C57.7854 38.2431 57.3366 37.6033 56.4394 37.6033C55.523 37.6033 55.0742 38.2431 54.9247 39.2276Z" fill="white"/>
<path d="M72.4996 45.3014C71.4338 45.3014 70.3867 45.0647 69.5454 44.6624C68.6291 45.119 67.526 45.3743 66.4046 45.3743C64.0862 45.3743 62.777 44.2257 62.777 42.1456C62.777 40.0838 64.2729 38.9344 66.9657 38.9344C67.5636 38.9344 68.2554 39.0447 68.9472 39.2997V39.063C68.9472 38.2049 68.2741 37.7128 67.1339 37.7128C66.0869 37.7128 64.7217 37.8777 63.5811 38.1518V35.6346C64.6657 35.2514 66.2551 35.0139 67.8633 35.0139C70.7795 35.0139 72.5 36.4 72.5 38.7714L72.4996 45.3014ZM67.8813 42.9301C68.237 42.9301 68.5919 42.8579 68.9468 42.73V41.3608C68.5543 41.2161 68.199 41.1424 67.8813 41.1424C66.9469 41.1424 66.4414 41.452 66.4414 42.0727C66.4414 42.6564 66.9465 42.9301 67.8813 42.9301Z" fill="white"/>
</svg>
