<svg width="20" height="20" viewBox="0 0 20 20" fill="none" xmlns="http://www.w3.org/2000/svg">
<g id="socialIcon">
<path id="path4" d="M17.3689 14.2872C17.0916 14.9277 16.7634 15.5173 16.3832 16.0594C15.8649 16.7984 15.4405 17.3099 15.1135 17.5939C14.6065 18.0602 14.0633 18.2989 13.4816 18.3125C13.0641 18.3125 12.5605 18.1937 11.9743 17.9527C11.3862 17.7127 10.8457 17.5939 10.3515 17.5939C9.83319 17.5939 9.27733 17.7127 8.68276 17.9527C8.08728 18.1937 7.60757 18.3193 7.24081 18.3318C6.68302 18.3555 6.12704 18.11 5.57207 17.5939C5.21787 17.285 4.77483 16.7554 4.24408 16.0051C3.67464 15.2039 3.20647 14.2748 2.8397 13.2156C2.44691 12.0715 2.25 10.9636 2.25 9.89099C2.25 8.66235 2.51549 7.60267 3.04725 6.71466C3.46517 6.00138 4.02115 5.43873 4.717 5.02567C5.41285 4.61262 6.16472 4.40213 6.97442 4.38867C7.41746 4.38867 7.99845 4.52571 8.72044 4.79504C9.4404 5.06528 9.90268 5.20232 10.1054 5.20232C10.2569 5.20232 10.7704 5.04208 11.641 4.72262C12.4643 4.42635 13.1591 4.30368 13.7283 4.352C15.2708 4.47648 16.4296 5.08452 17.2002 6.17996C15.8208 7.0158 15.1384 8.18649 15.152 9.68831C15.1644 10.8581 15.5888 11.8315 16.4228 12.6045C16.8008 12.9632 17.2229 13.2405 17.6925 13.4374C17.5907 13.7327 17.4832 14.0156 17.3689 14.2872ZM13.8313 0.366771C13.8313 1.28365 13.4963 2.13973 12.8287 2.93211C12.0229 3.8741 11.0484 4.41843 9.99151 4.33254C9.97804 4.22254 9.97024 4.10677 9.97024 3.98512C9.97024 3.10492 10.3534 2.16293 11.0339 1.39273C11.3736 1.00276 11.8057 0.678507 12.3296 0.419845C12.8524 0.165042 13.347 0.0241305 13.8121 0C13.8257 0.122572 13.8313 0.245152 13.8313 0.366759V0.366771Z" fill="white"/>
</g>
</svg>
