<svg width="16" height="16" viewBox="0 0 16 16" fill="none" xmlns="http://www.w3.org/2000/svg">
<g id="baseIcons" clip-path="url(#clip0_24565_2889)">
<path id="Icon" d="M7.33398 2.66714H2.66732C2.3137 2.66714 1.97456 2.80762 1.72451 3.05767C1.47446 3.30772 1.33398 3.64685 1.33398 4.00048V13.3338C1.33398 13.6874 1.47446 14.0266 1.72451 14.2766C1.97456 14.5267 2.3137 14.6671 2.66732 14.6671H12.0007C12.3543 14.6671 12.6934 14.5267 12.9435 14.2766C13.1935 14.0266 13.334 13.6874 13.334 13.3338V8.66714M12.334 1.66714C12.5992 1.40193 12.9589 1.25293 13.334 1.25293C13.7091 1.25293 14.0688 1.40193 14.334 1.66714C14.5992 1.93236 14.7482 2.29207 14.7482 2.66714C14.7482 3.04222 14.5992 3.40193 14.334 3.66714L8.00065 10.0005L5.33398 10.6671L6.00065 8.00048L12.334 1.66714Z" stroke="white" stroke-width="1.67" stroke-linecap="round" stroke-linejoin="round"/>
</g>
<defs>
<clipPath id="clip0_24565_2889">
<rect width="16" height="16" fill="white"/>
</clipPath>
</defs>
</svg>
