<svg width="20" height="20" viewBox="0 0 20 20" fill="none" xmlns="http://www.w3.org/2000/svg">
<g id="baseIcons" clip-path="url(#clip0_24712_2113)">
<path id="Icon" d="M18.8413 14.1247C19.1098 13.4908 19.2171 12.8002 19.1535 12.1147C19.0898 11.4292 18.8574 10.7702 18.4769 10.1965C18.0963 9.6228 17.5796 9.15234 16.9728 8.82715C16.366 8.50196 15.6881 8.33219 14.9997 8.33301H13.9497C13.6095 6.99341 12.8614 5.79266 11.8089 4.89689C10.7563 4.00112 9.45142 3.45462 8.07467 3.33301M4.16633 4.16634C2.86473 4.88604 1.84118 6.02033 1.25849 7.38876C0.675807 8.7572 0.567461 10.2812 0.950689 11.7183C1.33392 13.1554 2.18671 14.4231 3.3734 15.3197C4.5601 16.2163 6.01254 16.6903 7.49967 16.6663H14.9997C15.4828 16.6658 15.9622 16.5812 16.4163 16.4163M0.833001 0.833008L19.1663 19.1663" stroke="#ADADAD" stroke-width="1.66667" stroke-linecap="round" stroke-linejoin="round"/>
</g>
<defs>
<clipPath id="clip0_24712_2113">
<rect width="20" height="20" fill="white"/>
</clipPath>
</defs>
</svg>
