<svg width="18" height="18" viewBox="0 0 18 18" fill="none" xmlns="http://www.w3.org/2000/svg">
<path d="M3.16667 16.5H14.8333C15.7538 16.5 16.5 15.7538 16.5 14.8333V3.16667C16.5 2.24619 15.7538 1.5 14.8333 1.5H3.16667C2.24619 1.5 1.5 2.24619 1.5 3.16667V14.8333C1.5 15.7538 2.24619 16.5 3.16667 16.5ZM3.16667 16.5L12.3333 7.33333L16.5 11.5M7.33333 6.08333C7.33333 6.77369 6.77369 7.33333 6.08333 7.33333C5.39298 7.33333 4.83333 6.77369 4.83333 6.08333C4.83333 5.39298 5.39298 4.83333 6.08333 4.83333C6.77369 4.83333 7.33333 5.39298 7.33333 6.08333Z" stroke="#ADADAD" stroke-width="1.66667" stroke-linecap="round" stroke-linejoin="round"/>
</svg>
