<svg width="16" height="16" viewBox="0 0 16 16" fill="none" xmlns="http://www.w3.org/2000/svg">
<rect width="16" height="16" rx="8" fill="#58DAC3"/>
<path d="M8.38884 4.43628L9.19191 6.37741C9.22036 6.44614 9.26452 6.50223 9.31972 6.54232C9.37482 6.5823 9.44206 6.60697 9.51636 6.61274L11.6115 6.77685C11.7317 6.7863 11.8299 6.8424 11.898 6.92197C11.9346 6.96494 11.9621 7.01447 11.979 7.06659C11.9961 7.1193 12.003 7.1752 11.9988 7.23011C11.9906 7.33494 11.9441 7.43779 11.8519 7.51656L10.2539 8.88031C10.1968 8.92904 10.1568 8.98862 10.1357 9.05357C10.1145 9.11872 10.1118 9.19053 10.1294 9.26324L10.6205 11.3057C10.6488 11.4233 10.626 11.5335 10.5718 11.6222L10.5631 11.6353C10.5352 11.6772 10.4996 11.7139 10.4589 11.7436C10.415 11.7761 10.3638 11.8 10.3089 11.8133C10.2071 11.8378 10.0948 11.8255 9.9919 11.7626L8.20135 10.664C8.1378 10.6251 8.06857 10.6054 7.99994 10.6054C7.93131 10.6054 7.86208 10.6251 7.79853 10.664L6.00788 11.7626C5.90524 11.8254 5.79314 11.8377 5.69159 11.8133C5.63718 11.8003 5.58586 11.7762 5.5412 11.7439C5.49624 11.7121 5.45745 11.6704 5.42801 11.6222C5.37361 11.5335 5.35103 11.4233 5.37927 11.3057L5.87053 9.26304C5.88793 9.19023 5.88535 9.11832 5.86436 9.05307C5.84317 8.98842 5.80309 8.92874 5.746 8.88001L4.14812 7.51656C4.05591 7.43809 4.00926 7.33494 4.00091 7.22772C3.99733 7.17122 4.00439 7.11732 4.0209 7.06659C4.03781 7.01467 4.06526 6.96504 4.10186 6.92207C4.17 6.8423 4.26817 6.7863 4.38852 6.77685L6.4867 6.61244C6.55971 6.60627 6.62585 6.5816 6.68006 6.54232C6.73536 6.50223 6.77962 6.44604 6.80797 6.37741L7.61104 4.43628C7.65719 4.32468 7.74084 4.24859 7.83761 4.2086C7.89033 4.18682 7.94573 4.17578 7.99994 4.17578C8.05415 4.17578 8.10955 4.18682 8.16226 4.2086C8.25904 4.24839 8.34269 4.32468 8.38884 4.43628Z" fill="#045D4D"/>
</svg>
