<svg width="20" height="20" viewBox="0 0 20 20" fill="none" xmlns="http://www.w3.org/2000/svg">
<g id="Vector">
<path d="M8.84915 0.612705C9.39892 -0.204235 10.6011 -0.204235 11.1509 0.612704L12.3316 2.3672C12.6429 2.82992 13.2012 3.06114 13.7485 2.95414L15.824 2.54841C16.7905 2.35949 17.6405 3.20955 17.4516 4.17595L17.0459 6.25146C16.9389 6.79883 17.1701 7.35706 17.6328 7.66844L19.3873 8.84915C20.2042 9.39892 20.2042 10.6011 19.3873 11.1509L17.6328 12.3316C17.1701 12.6429 16.9389 13.2012 17.0459 13.7485L17.4516 15.824C17.6405 16.7905 16.7905 17.6405 15.824 17.4516L13.7485 17.0459C13.2012 16.9389 12.6429 17.1701 12.3316 17.6328L11.1509 19.3873C10.6011 20.2042 9.39892 20.2042 8.84915 19.3873L7.66844 17.6328C7.35706 17.1701 6.79883 16.9389 6.25146 17.0459L4.17595 17.4516C3.20955 17.6405 2.35949 16.7905 2.54841 15.824L2.95414 13.7485C3.06114 13.2012 2.82992 12.6429 2.3672 12.3316L0.612705 11.1509C-0.204235 10.6011 -0.204235 9.39892 0.612704 8.84915L2.3672 7.66844C2.82992 7.35706 3.06114 6.79883 2.95414 6.25146L2.54841 4.17595C2.35949 3.20955 3.20955 2.35949 4.17595 2.54841L6.25146 2.95414C6.79883 3.06114 7.35706 2.82992 7.66844 2.3672L8.84915 0.612705Z" fill="#0E0E0E"/>
<path fill-rule="evenodd" clip-rule="evenodd" d="M14.5303 6.46967C14.8232 6.76256 14.8232 7.23744 14.5303 7.53033L9.03033 13.0303C8.73744 13.3232 8.26256 13.3232 7.96967 13.0303L5.46967 10.5303C5.17678 10.2374 5.17678 9.76256 5.46967 9.46967C5.76256 9.17678 6.23744 9.17678 6.53033 9.46967L8.5 11.4393L13.4697 6.46967C13.7626 6.17678 14.2374 6.17678 14.5303 6.46967Z" fill="#A6F2E5"/>
</g>
</svg>
